HIERARCHY
ROOT RootJoint
{
    OFFSET   0.000000   0.000000   0.000000
    CHANNELS 6 Xposition Yposition Zposition Xrotation Yrotation Zrotation
    JOINT lHip
    {
        OFFSET   0.100000  -0.051395   0.000000
        CHANNELS 3 Xrotation Yrotation Zrotation
        JOINT lKnee
        {
            OFFSET   0.000000  -0.410000   0.000000
            CHANNELS 3 Xrotation Yrotation Zrotation
            JOINT lAnkle
            {
                OFFSET   0.000000  -0.390000   0.000000
                CHANNELS 3 Xrotation Yrotation Zrotation
                JOINT lToeJoint
                {
                    OFFSET   0.000000  -0.050000   0.130000
                    CHANNELS 3 Xrotation Yrotation Zrotation
                    End Site
                    {
                        OFFSET   0.010000   0.002000   0.060000
                    }
                }
            }
        }
    }
    JOINT rHip
    {
        OFFSET  -0.100000  -0.051395   0.000000
        CHANNELS 3 Xrotation Yrotation Zrotation
        JOINT rKnee
        {
            OFFSET   0.000000  -0.410000   0.000000
            CHANNELS 3 Xrotation Yrotation Zrotation
            JOINT rAnkle
            {
                OFFSET   0.000000  -0.390000   0.000000
                CHANNELS 3 Xrotation Yrotation Zrotation
                JOINT rToeJoint
                {
                    OFFSET   0.000000  -0.050000   0.130000
                    CHANNELS 3 Xrotation Yrotation Zrotation
                    End Site
                    {
                        OFFSET  -0.010000   0.002000   0.060000
                    }
                }
            }
        }
    }
    JOINT pelvis_lowerback
    {
        OFFSET   0.000000   0.093605   0.000000
        CHANNELS 3 Xrotation Yrotation Zrotation
        JOINT lowerback_torso
        {
            OFFSET   0.000000   0.100000   0.000000
            CHANNELS 3 Xrotation Yrotation Zrotation
            JOINT torso_head
            {
                OFFSET   0.000000   0.282350   0.000000
                CHANNELS 3 Xrotation Yrotation Zrotation
                End Site
                {
                    OFFSET   0.000000   0.192650   0.000000
                }
            }
            JOINT lTorso_Clavicle
            {
                OFFSET   0.001000   0.157500   0.000000
                CHANNELS 3 Xrotation Yrotation Zrotation
                JOINT lShoulder
                {
                    OFFSET   0.117647   0.000000   0.000000
                    CHANNELS 3 Xrotation Yrotation Zrotation
                    JOINT lElbow
                    {
                        OFFSET   0.245000   0.000000   0.000000
                        CHANNELS 3 Xrotation Yrotation Zrotation
                        JOINT lWrist
                        {
                            OFFSET   0.240000   0.000000   0.000000
                            CHANNELS 3 Xrotation Yrotation Zrotation
                            End Site
                            {
                                OFFSET   0.116353  -0.002500   0.000000
                            }
                        }
                    }
                }
            }
            JOINT rTorso_Clavicle
            {
                OFFSET  -0.001000   0.157500   0.000000
                CHANNELS 3 Xrotation Yrotation Zrotation
                JOINT rShoulder
                {
                    OFFSET  -0.117647   0.000000   0.000000
                    CHANNELS 3 Xrotation Yrotation Zrotation
                    JOINT rElbow
                    {
                        OFFSET  -0.245000   0.000000   0.000000
                        CHANNELS 3 Xrotation Yrotation Zrotation
                        JOINT rWrist
                        {
                            OFFSET  -0.240000   0.000000   0.000000
                            CHANNELS 3 Xrotation Yrotation Zrotation
                            End Site
                            {
                                OFFSET  -0.116353  -0.002500   0.000000
                            }
                        }
                    }
                }
            }
        }
    }
}
MOTION
Frames: 14
Frame Time:   0.010000
  0.000000   0.000000   0.000000   0.000000   0.000000   0.000000   0.000000   0.000000   0.000000   0.000000   0.000000   0.000000   0.000000   0.000000   0.000000   0.000000   0.000000   0.000000   0.000000   0.000000   0.000000   0.000000   0.000000   0.000000   0.000000   0.000000   0.000000   0.000000   0.000000   0.000000   0.000000   0.000000   0.000000   0.000000   0.000000   0.000000   0.000000   0.000000   0.000000   0.000000   0.000000   0.000000   0.000000   0.000000   0.000000   0.000000   0.000000   0.000000   0.000000   0.000000   0.000000   0.000000   0.000000   0.000000   0.000000   0.000000   0.000000   0.000000   0.000000   0.000000   0.000000   0.000000   0.000000
 -0.453094   0.858281   1.999612  -0.352273 -64.180689   0.045689 -20.805845   6.990689  -0.916613  28.332968   0.760126   5.382774  -2.021497   0.631605  -0.299284   0.299966  -0.627566   0.065928  -7.546139 -11.262845  -1.194752  24.888973   2.426299  -5.338273  -0.369637   0.092212   5.215390  -0.382306   0.079277   0.001528   2.312954   0.266295  -0.314611   6.267644   2.096684   1.855158  11.539068   8.485268  -3.835292  -0.183696   1.236205 -16.082646  17.512393 -25.034034 -47.084402  -0.276995 -23.757011   4.341010   1.448221   2.708475  -4.402810  -2.369434   1.777581  18.070170  18.243608  26.750476  43.737535  -1.041878  29.170679  -3.824398   9.174253   3.682502  -2.079293
 -0.651319   0.848986   2.614615  16.451462  82.038727 -16.730111 -16.674932   8.544698   0.390408  39.508785  -2.486308   6.550348  -1.635924  -1.810222  -0.146201   0.070977  -0.262425  -0.429420 -16.787608 -11.498428  -1.920756  28.059299  -1.548908  -6.170927   1.597380  -2.390015   4.116258   0.487465  -0.164715  -0.087836   2.194825   0.619391  -0.018513   5.631602  -1.079084   0.440559   9.278584   3.212725  -2.417740   0.666351   0.128220 -16.229832  15.184944 -27.702279 -46.049953   1.008453 -33.949483   5.669270   4.334350   1.813788  -3.694109  -0.994966   0.176789  17.699787  21.841163  25.222608  46.062505  -0.887486  28.268470  -3.829466   6.408985   3.324661  -2.729447
  1.355487   0.864307  -0.924370  13.765497 -70.762848  14.931692 -20.032271  10.419781   0.133543  27.185300   1.261120   5.288470   0.508860   1.614500  -3.769742  -0.197957  -0.299709   0.174878  -9.923906 -12.007055   0.336221  23.837267  -0.111454  -6.046512   0.974305  -0.440723   2.596624   0.552752  -0.393351   0.168726   1.994235   1.180237  -0.217473   4.508918   3.196352   1.075937  12.858947   1.367204  -1.647223   0.252453   2.452579 -18.189249  21.982949 -27.164018 -48.000854  -0.061184 -23.924319   4.181053   3.159156   3.469829  -4.641376  -1.648695   2.877539  18.322146  17.526601  30.036523  47.696337  -1.014843  31.560050  -4.773059  11.652149   2.564167  -1.097503
 -0.765236   0.886828   2.365055 127.920203  88.720677 -128.817214 -18.626034  11.778322  -0.899861  28.509516   2.164775   5.200396  -0.780782   1.206659   0.009571   0.193213  -0.866801   0.861305  -8.379488 -13.153264   1.112757  19.661151  -0.246576  -4.801471   0.304118  -1.819961   5.454610  -0.120345  -0.120287   0.580461   1.666682  -0.441796   0.639305   5.983530   0.624939   1.613679  14.744012  10.169067  -5.588232  -0.646149  -1.088966 -17.309615  16.651954 -28.336872 -47.576974  -0.172592 -28.059158   4.840815   3.485231   2.823841  -4.508315  -1.529446   0.296753  19.397520  18.143296  25.353794  46.807980  -0.947616  28.566367  -4.222627   7.011652   3.163623  -2.470210
  0.137931   0.839010   1.500554 177.699969  58.911519 -177.501448 -16.594608   9.786520   0.521711  34.812447  -0.364008   6.142968  -0.291625  -1.410103  -1.748761   0.888633  -0.115857   0.734918 -15.974757 -11.137922   0.343200  29.118962  -0.898093  -6.380532   1.040148  -0.434319   0.522440   0.171297   0.784946  -0.147064   1.480930  -0.155632  -0.370195   7.103115   0.393203  -0.361604  11.310834  -4.782338   1.956754  -0.034220  -1.404983 -16.100869  17.480306 -27.245575 -46.189066   1.099792 -34.761085   6.031035   6.682535   1.673279  -3.276930  -0.627080   0.401774  17.500728  21.130335  26.662441  45.115272  -1.396835  31.032049  -4.274157   8.649285   4.056744  -2.949379
  0.060507   0.840525   0.840143   6.847589  78.513681  -6.782329 -13.987819  12.119733  -0.146489  28.255900   1.261204   5.528848  -2.311601   1.629020  -1.190503  -0.446834   0.380561  -0.221687 -14.506856 -10.711035  -1.672861  24.707481  -0.503273  -5.261863   2.482201  -0.934689   3.427270  -0.176174   0.204599  -0.175846   1.329778  -0.553593  -0.277337   5.558629  -1.374920  -0.378614  14.572489  -1.499556  -0.321735   0.190134  -1.823154 -16.220555  16.551956 -27.213967 -47.471690   0.927532 -31.826202   6.742938   5.029779   2.207443  -4.368277  -0.814338   0.020739  17.960134  20.388922  26.585782  46.704707  -1.075067  28.862418  -3.765508   6.309584   3.352874  -2.259513
 -0.719368   0.903607   2.080567   5.126168  89.362085  -5.586065 -16.396089  10.261443  -1.533676  26.663142   3.789022   5.966910  -2.793579   1.610086  -1.023658  -0.528820  -0.532016   0.968001  -9.828513 -12.169464  -1.474792  20.898863  -1.879522  -5.240973   0.164939  -1.322273   4.908347   0.531828   0.681465  -0.096809   0.679111  -0.527935  -0.392352   6.876766  -0.492860   0.255771  13.221158   8.650885  -6.551785   0.265917  -0.127709 -18.092536  17.841319 -28.631833 -47.385870   0.503961 -26.997013   4.978314   5.403792   2.881807  -5.435144   0.368700   0.703198  17.616184  19.382650  27.304297  46.219616  -1.286974  28.699943  -5.335899   6.021260   3.389970  -1.812184
 -0.214630   0.799324   0.094743   0.075056  27.984270   0.936796 -21.135205   9.311682   4.245130  39.706668   0.007601   6.682525  -2.044408   1.019368  -5.342309   0.199487   0.576501   0.243569 -15.232768 -11.484846  -1.225763  28.398579  -2.684157  -5.768603  -2.367914  -3.731905   4.524059   0.069563   1.322297  -0.298859   2.455620   0.627817  -0.733353   6.125539   2.915992  -0.173069  12.713997  -3.726331  -0.650412   0.044963   0.833772 -15.170391  16.763442 -24.799365 -46.593151   1.991091 -34.116614   7.011479   6.914911   2.547003  -2.993120  -1.508063   0.955220  16.793998  22.699760  25.781340  42.806164  -1.196759  30.337657  -5.052520   9.834812   3.595521  -0.719718
 -0.893668   0.816190   2.671588  -3.463896 -50.393789  -1.651773 -15.926937   9.549163  -2.078052  32.879996   0.187242   5.675889  -1.976481  -0.471768  -0.266413  -0.294445   0.317534   0.072584 -14.213187 -11.241643  -1.600029  27.123478   0.943162  -5.872461   1.257734  -0.433260   5.652144   0.082723   0.507653  -0.252588   1.605239  -0.237761  -0.970389   7.164703  -0.934306   0.006059  10.534659   5.083090  -3.818597  -0.312971  -1.519140 -16.319862  16.906806 -28.517335 -46.205990   0.597853 -32.060056   6.080909   6.992420   2.385917  -4.081383  -1.302473   1.118771  17.631498  20.023279  26.234519  45.843040  -1.411751  29.577840  -4.102275   6.733850   2.403876  -2.831050
 -0.737676   0.865445   2.381448 162.766857  80.419874 -164.796790 -17.757300   9.589151   0.197767  33.532501   0.198685   5.341756  -0.444198   0.195741  -1.741358  -0.412554  -0.198226   0.215969 -13.502390 -10.144506   0.130330  27.132916  -0.765302  -5.928005   0.447293  -1.157230   2.891488  -0.286986   0.363577   0.453325   1.268288  -0.459079  -0.103196   6.592502  -0.710823   0.917150  12.026866   0.571069  -0.933565   0.050736  -1.590874 -16.705970  17.448137 -28.088869 -46.977504  -0.704703 -29.064806   5.861330   4.727042   1.845951  -3.502298  -1.513959  -0.221426  18.531349  19.679411  26.285483  46.145360  -0.439457  28.475652  -4.486293   7.086833   2.670226  -2.034103
  0.864146   0.827524  -0.301364  -1.891206 -74.400841  -1.344326 -18.830475   8.771709  -0.246520  29.740659   1.559795   5.166671  -2.638179   0.471414  -2.164903  -0.161301  -0.258908  -0.430404 -11.809310 -11.525216  -1.227052  25.036758   0.987668  -5.169809   1.015124   0.789520   3.832046  -0.089992  -0.026611  -0.565248   1.887362  -0.063059  -0.000205   5.575154   1.724323  -0.405019  12.934174   0.340633  -1.404689   0.397754   1.003635 -17.243045  20.372937 -26.412320 -48.226641  -0.049293 -26.947294   3.323099   2.115045   3.093458  -4.072160  -1.079764   1.332452  18.877268  18.388010  28.644360  46.865866  -0.540919  30.893055  -4.820111   9.758302   3.924590  -2.016848
  0.725406   0.836807  -0.369134   0.068443  25.254707   2.150969 -18.377229   9.952133   2.627778  37.263962   0.615191   6.378782   0.326461  -0.138342  -3.376823  -0.114367  -0.418354   0.066420 -16.692232 -10.347794  -0.213749  29.794724  -1.498367  -6.622595  -0.315737  -2.720620   1.199441  -0.093964  -0.182219  -0.433545   1.827141  -0.070894  -0.664120   7.110236  -1.810033  -1.227735  14.457399  -9.641188   3.667965  -0.188291  -1.079798 -15.128281  16.119536 -26.812137 -47.609883   1.511947 -34.710472   6.747282   5.011066   1.437740  -1.716074  -0.917098   0.117674  17.380825  22.556139  26.353447  47.645675  -1.072027  30.278709  -3.828770   7.855614   3.500211  -0.141628
 -0.741939   0.811259   1.079511   2.123827  30.330831  -2.514427 -23.877819   6.104370   1.792341  40.208270  -0.218437   5.575431  -2.252174  -0.329002  -4.889420   0.755992  -0.711390  -0.323160 -10.646694 -11.033086  -2.324493  27.312828  -2.822372  -6.848269  -1.311625  -3.084958   8.002306   0.524388  -0.532603  -0.097478   1.256760   0.142151  -0.396139   6.651612   2.297853   0.599377  11.985643  -0.006745  -0.865033  -0.208979   0.805270 -14.168627  16.000946 -24.294365 -46.332366  -0.348277 -32.026214   5.156932   5.885619   1.604858  -2.487412  -0.775405   0.262534  16.086737  21.933064  23.365572  43.634034  -0.525319  29.225702  -3.841726   7.902173   3.136494  -1.283251
